<svg width="168" height="168" viewBox="0 0 168 168" fill="none" xmlns="http://www.w3.org/2000/svg">
<g filter="url(#filter0_d_0_341)">
<rect x="50.5" y="16.5" width="67" height="67" rx="33.5" stroke="#A3B938"/>
</g>
<path fill-rule="evenodd" clip-rule="evenodd" d="M83.9995 47.0516C82.337 47.0516 80.9857 48.4041 80.9857 50.0666C80.9857 51.7279 82.337 53.0791 83.9995 53.0791C85.662 53.0791 87.0145 51.7279 87.0145 50.0666C87.0145 48.4041 85.662 47.0516 83.9995 47.0516ZM83.9995 54.9541C81.3032 54.9541 79.1107 52.7616 79.1107 50.0666C79.1107 47.3704 81.3032 45.1766 83.9995 45.1766C86.6958 45.1766 88.8895 47.3704 88.8895 50.0666C88.8895 52.7616 86.6958 54.9541 83.9995 54.9541Z" fill="#A3B938"/>
<mask id="mask0_0_341" style="mask-type:luminance" maskUnits="userSpaceOnUse" x="71" y="40" width="26" height="21">
<path fill-rule="evenodd" clip-rule="evenodd" d="M71.5002 40.0002H96.5V60.1315H71.5002V40.0002Z" fill="white"/>
</mask>
<g mask="url(#mask0_0_341)">
<path fill-rule="evenodd" clip-rule="evenodd" d="M73.4624 50.0656C75.7874 55.2019 79.7036 58.2556 83.9999 58.2569C88.2961 58.2556 92.2124 55.2019 94.5374 50.0656C92.2124 44.9306 88.2961 41.8769 83.9999 41.8756C79.7049 41.8769 75.7874 44.9306 73.4624 50.0656ZM84.0024 60.1319H83.9974H83.9961C78.8261 60.1281 74.1836 56.5044 71.5761 50.4356C71.4749 50.1994 71.4749 49.9319 71.5761 49.6956C74.1836 43.6281 78.8274 40.0044 83.9961 40.0006C83.9986 39.9994 83.9986 39.9994 83.9999 40.0006C84.0024 39.9994 84.0024 39.9994 84.0036 40.0006C89.1736 40.0044 93.8161 43.6281 96.4236 49.6956C96.5261 49.9319 96.5261 50.1994 96.4236 50.4356C93.8174 56.5044 89.1736 60.1281 84.0036 60.1319H84.0024Z" fill="#A3B938"/>
</g>
<defs>
<filter id="filter0_d_0_341" x="0" y="0" width="168" height="168" filterUnits="userSpaceOnUse" color-interpolation-filters="sRGB">
<feFlood flood-opacity="0" result="BackgroundImageFix"/>
<feColorMatrix in="SourceAlpha" type="matrix" values="0 0 0 0 0 0 0 0 0 0 0 0 0 0 0 0 0 0 127 0" result="hardAlpha"/>
<feOffset dy="34"/>
<feGaussianBlur stdDeviation="25"/>
<feColorMatrix type="matrix" values="0 0 0 0 0.0273438 0 0 0 0 0.248391 0 0 0 0 0.2625 0 0 0 0.07 0"/>
<feBlend mode="normal" in2="BackgroundImageFix" result="effect1_dropShadow_0_341"/>
<feBlend mode="normal" in="SourceGraphic" in2="effect1_dropShadow_0_341" result="shape"/>
</filter>
</defs>
</svg>
